<?xml version="1.0" encoding="UTF-8"?>
<svg width="139.5mm" height="150.05mm" version="1.1" viewBox="0 0 139.5 150.05" xmlns="http://www.w3.org/2000/svg" xmlns:cc="http://creativecommons.org/ns#" xmlns:dc="http://purl.org/dc/elements/1.1/" xmlns:rdf="http://www.w3.org/1999/02/22-rdf-syntax-ns#">
 <style>#beard__hair,#g1506 {  }
#eye__ball,#path1679-9-0 {  }</style>
 <metadata>
  <rdf:RDF>
   <cc:Work rdf:about="">
    <dc:format>image/svg+xml</dc:format>
    <dc:type rdf:resource="http://purl.org/dc/dcmitype/StillImage"/>
    <dc:title/>
   </cc:Work>
  </rdf:RDF>
 </metadata>
 <g transform="translate(-30.433 -35.823)" opacity=".999" style="mix-blend-mode:normal">
  <path d="m48.275 151.39 1.4307 3.2859c2.8614-1.9716 5.405 12.979-1.4307 3.4502 0 0-13.194 2.9573-7.4716 12.487 7.3126 14.787 19.394 10.515 19.394 10.515" fill="none" stroke="#000" stroke-width=".90502px"/>
  <path d="m84.763 102.22c0.39717-1.2379 1.2905-1.9297 2.2482-2.672 4.3058-3.3376 5.8681 4.4611 10.117 3.8338" fill="none" stroke="#000" stroke-width=".90502px"/>
  <g>
   <path d="m85.117 101.43c5.34e-4 -2e-3 0.0024-4e-3 7.62e-4 -2e-3 -0.0011 2e-3 -0.0041 5e-3 -0.01189 0.0129-0.0032 3e-3 -0.0069 7e-3 -0.01163 0.0108-0.0046 4e-3 -0.01042 9e-3 -0.01776 0.0158-0.0096 9e-3 -0.02698 0.0241-0.0435 0.0417-0.01543 0.0141-0.03869 0.0289-0.09169 0.0637-0.02083 0.0137-0.04659 0.0309-0.07205 0.051-0.025 0.0196-0.05192 0.0436-0.07722 0.0733-0.0039 5e-3 -0.0075 9e-3 -0.01088 0.0143-0.06627 0.0981-0.10921 0.16898-0.16825 0.24735-0.03794 0.0507-0.06011 0.0759-0.07776 0.0942a0.1607 0.1607 90 0 0 0.23161 0.22284c0.0286-0.0297 0.05926-0.0654 0.10312-0.12399 0.06288-0.0835 0.11714-0.17049 0.17169-0.25169 7e-3 -7e-3 0.01559-0.0152 0.02631-0.0236 0.01418-0.0112 0.03042-0.0222 0.04998-0.0351 0.04385-0.0288 0.09509-0.0606 0.14266-0.10548 0.01245-0.0128 0.01985-0.0196 0.02974-0.0285 0.0062-6e-3 0.01281-0.0114 0.0191-0.017 0.0064-6e-3 0.01307-0.0119 0.01989-0.0185 0.0172-0.0166 0.03368-0.0346 0.04864-0.0552 0.02316-0.0319 0.03594-0.061 0.0435-0.0833a0.1607 0.1607 90 0 0-0.30437-0.10324z"/>
   <path d="m84.969 102.06c0.0011-2e-3 0.0037-4e-3 0.0046-5e-3 5.8e-4 -4.5e-4 4.3e-5 1e-4 -0.0026 1e-3 -0.0055 3e-3 -0.01645 7e-3 -0.0397 0.0112-0.0152 3e-3 -0.03952 8e-3 -0.0601 0.013-0.03476 9e-3 -0.0607 0.019-0.08233 0.03a0.1607 0.1607 90 0 0 0.14589 0.28638c2.57e-4 -1.3e-4 2e-3 -1e-3 0.01491-5e-3 0.01304-3e-3 0.02148-5e-3 0.04478-0.01 0.03852-7e-3 0.07664-0.0183 0.11209-0.0349 0.0015-7e-4 3e-3 -1e-3 0.0044-2e-3 0.02138-0.0103 0.04187-0.0228 0.06097-0.0378 0.03008-0.0236 0.0492-0.0476 0.06046-0.0637a0.1607 0.1607 90 0 0-0.26341-0.18416z"/>
   <path d="m84.294 102.05c-0.0016 0.0155-4e-3 0.0493 0.0043 0.0925 0.0011 6e-3 0.0023 0.0114 0.0038 0.0173 0.0042 0.0171 0.01063 0.0376 0.02083 0.0608 0.01717 0.0391 0.04099 0.0767 0.07117 0.11431 0.07115 0.0852 0.17705 0.17324 0.32174 0.21098 0.04775 0.0125 0.10214 0.0177 0.15777 0.01 0.02765-4e-3 0.05595-0.0109 0.08392-0.0222 0.02813-0.0114 0.05558-0.0268 0.08105-0.047 0.0079-6e-3 0.01524-0.0133 0.02184-0.0209-3e-3 3e-3 -0.0051 5e-3 -0.0045 5e-3 9.2e-4 -6.9e-4 0.0034-2e-3 0.0097-6e-3 0.0097-6e-3 0.04046-0.0226 0.06688-0.0442 0.0061-5e-3 0.01183-0.0104 0.01713-0.0163 0.02575-0.0283 0.03848-0.0578 0.04542-0.0808 0.0092-0.0305 0.0098-0.0568 0.0097-0.069a0.1607 0.1607 90 0 0-0.32139 2e-3c-1.9e-5 -3e-3 -6.9e-5 -0.0125 0.0039-0.0258 0.0032-0.0106 0.0097-0.0265 0.02453-0.0428 0.0053-6e-3 0.01103-0.0113 0.01713-0.0163 0.0013-1e-3 -0.0068 4e-3 -0.02791 0.0169-0.0095 6e-3 -0.02313 0.014-0.03741 0.0247-0.0087 7e-3 -0.01818 0.0143-0.0278 0.0234-0.0015 4.9e-4 -0.0037 1e-3 -0.0065 1e-3 -0.0085 1e-3 -0.01996 6.5e-4 -0.03214-3e-3 -0.06224-0.0162-0.11607-0.0579-0.15434-0.10364-0.01445-0.0181-0.02196-0.0318-0.02555-0.0399-2e-3 -5e-3 -0.0028-7e-3 -3e-3 -8e-3 -6.47e-4 -3e-3 -3.52e-4 -1e-3 -4.06e-4 -8.7e-4a0.1607 0.1607 90 0 0-0.3198-0.0321z"/>
   <path d="m96.962 103.21c-0.0032 6.2e-4 -0.0086 1e-3 -0.01463 3.1e-4 -0.0019-3.1e-4 -0.0035-7.5e-4 -0.0048-1e-3 -0.0027-1e-3 4.5e-4 9.9e-4 0.0019 3e-3 0.01284 0.0182 0.02377 0.0399 0.0319 0.0687 0.0072 0.0256 0.01177 0.0553 0.01286 0.0886 1.37e-4 0.0206-0.0013 0.0393-0.0043 0.0534-0.0014 7e-3 -0.0029 0.011-0.0042 0.0138-1.17e-4 2.7e-4 -2.31e-4 5.2e-4 -3.42e-4 7.6e-4 -0.01287 0.0122-0.0288 0.0243-0.04857 0.0371-0.02573 0.0167-0.05429 0.0324-0.08589 0.0502-0.01758 0.01-0.03571 0.0189-0.04488 0.0237a0.1607 0.1607 90 0 0 0.14748 0.28556c0.0098-5e-3 0.03025-0.0157 0.05292-0.028 0.02883-0.0162 0.06894-0.0382 0.10558-0.062 0.03599-0.0234 0.07657-0.0534 0.11401-0.0928 0.0034-4e-3 0.0066-7e-3 0.0097-0.0111 0.01914-0.0243 0.03375-0.0498 0.04484-0.0754 0.01102-0.0254 0.01847-0.0505 0.02358-0.0742 0.01018-0.0473 0.01175-0.0926 0.01144-0.12779-0.0019-0.0596-0.0097-0.11542-0.02483-0.16909-0.01729-0.0613-0.04327-0.11668-0.07738-0.16497-0.03571-0.0522-0.08226-0.0867-0.12182-0.10681-0.01312-7e-3 -0.0254-0.0117-0.03639-0.0156-0.01758-6e-3 -0.03442-0.0104-0.05015-0.013-0.04535-8e-3 -0.08143-2e-3 -0.10001 1e-3a0.1607 0.1607 90 0 0 0.06204 0.31536z"/>
   <path d="m96.846 103.47c0.0014 1e-3 0.0077 6e-3 0.01805 0.0177 0.0016 2e-3 0.0034 4e-3 0.0056 7e-3 0.01001 0.0121 0.01649 0.0211 0.0361 0.0476 0.02923 0.0426 0.05596 0.0864 0.06636 0.12789 5.91e-4 2e-3 1.26e-4 -2.8e-4 1.1e-5 -3e-3 -1.1e-4 -3e-3 3.9e-5 -8e-3 0.0019-0.0155 0.0018-7e-3 0.0057-0.0176 0.01388-0.0287 0.0085-0.0116 0.02-0.0216 0.03331-0.0284l-0.0088 5e-3c-4.78e-4 2.8e-4 -0.0017 9.9e-4 -0.0048 2e-3 -0.0033 1e-3 -0.0081 2e-3 -0.01499 3e-3 -0.01592 2e-3 -0.03498 3e-3 -0.0617 3e-3 -0.03838-4e-5 -0.08424-3e-3 -0.11113-3e-3a0.1607 0.1607 90 0 0-0.0019 0.3214c0.0187 1.1e-4 0.05508 3e-3 0.11459 3e-3 0.02609-2.6e-4 0.06615-5.6e-4 0.10672-7e-3 0.02021-3e-3 0.04264-8e-3 0.06602-0.015 0.02183-7e-3 0.04467-0.0165 0.06747-0.0296 0.03033-0.0165 0.05534-0.0389 0.07447-0.065 0.01978-0.027 0.03168-0.0556 0.03843-0.0821 0.0068-0.0266 0.0087-0.0524 0.0079-0.0756-8.67e-4 -0.0237-0.0047-0.0466-0.01074-0.0678-0.02474-0.0992-0.08365-0.18576-0.1153-0.23167-0.02082-0.0283-0.03315-0.0454-0.05-0.0657-0.0042-5e-3 -8e-3 -0.01-0.01162-0.0136-0.02666-0.0304-0.04859-0.0487-0.06121-0.0586a0.1607 0.1607 90 0 0-0.19844 0.25282z"/>
  </g>
  <g fill="none">
   <path d="m89.372 105.48s-6.8234 9e-3 -5.9576-0.9294c0 0-8.9365-18.646-23.269-10.223-0.67445-18.937 24.533-2.5559 21.723 7.1448" stroke="#000" stroke-linecap="round" stroke-linejoin="round" stroke-width=".905"/>
   <path d="m56.436 79.328c12.365 8.1323 10.874 2.101 24.617 4.5309 1.7985 0.69705 6.6321 1.975 10.454 12.779" stroke="#000" stroke-linecap="round" stroke-width="2.2747" style="paint-order:markers stroke fill"/>
   <path d="m63.218 103.83 3.7612 12.462c1.7964-0.54218 3.4242-14.63 5.2206-15.172-1.7964 0.54218-10.947-10.293-12.743-9.7506l3.7612 12.462z"/>
  </g>
  <path d="m62.666 101.98c0.23209 0.34854 0.52149 0.6482 0.80598 0.95 0.32556 0.38171 0.73374 0.65183 1.1627 0.89164 0.59222 0.32062 1.247 0.44837 1.9034 0.53356 0.42402 0.0513 0.85332 0.0544 1.2761-0.0118 0.29084-0.0454 0.42442-0.088 0.71276-0.16277 0.50386-0.15437 1.0129-0.30862 1.4857-0.55014 0.54818-0.28 1.0551-0.6392 1.5786-0.96577 0.28421-0.23003 0.55473-0.48076 0.78399-0.7702 0.17836-0.22516 0.23664-0.33797 0.38448-0.58183l-1.0379 0.47178v0c-0.3291 0.52123-0.6831 0.94526-1.1811 1.3058 0.22156-0.12342 0.43986-0.25333 0.6647-0.37028 0.1072-0.0557-0.20531 0.12891-0.31153 0.1866-0.46558 0.25291-0.97158 0.40987-1.4729 0.56663-0.25978 0.0704-0.43527 0.12442-0.69852 0.17074-0.41583 0.0731-0.83968 0.0767-1.2586 0.033-0.64612-0.0731-1.2907-0.18774-1.8745-0.50048-0.19899-0.10947-0.30612-0.16118-0.49199-0.29144-0.23536-0.16497-0.43844-0.37211-0.63776-0.58009-0.28216-0.28783-0.57426-0.57405-0.77241-0.93369l-1.021 0.60865z" stroke="#000" stroke-linecap="round" stroke-miterlimit="6.2" stroke-width=".34206" style="paint-order:markers stroke fill"/>
  <g fill="none" stroke="#000">
   <path transform="matrix(3.3646 0 0 3.4774 -244.93 -239.8)" d="m92.919 84.068c25.792-14.566 37.615 13.28 23.851 27.379" opacity="1" stroke-width=".26458px" style="mix-blend-mode:normal"/>
   <g stroke-width=".90502px">
    <path d="m67.79 52.5s-25.629 11.385-23.156 38.803l-10.791 27.185c-2.6978 3.95 1.1241 5.1118 1.1241 5.1118l9.4423-0.92941c10.391 7.1661 17.347-5.358 6.7445-4.8794"/>
    <path d="m45.083 139.63c-5.405 3.6145-1.7362 10.119 3.1919 11.762 3.6563 0 4.1332-2.1359 3.1794-3.9432"/>
    <path d="m70.693 178.14 3.8258-0.7057c0.8942-0.0821-0.13183 2.6437 3.0858 2.513 45.863-3.0206 70.431-32.285 70.431-32.285l0.0135-0.13075"/>
   </g>
  </g>
  <path d="m63.502 105.68s4.1516 4.9423 4.5845 4.981c4.7341-4.8966 14.198-1.2422 14.198-1.2422" fill="none" stroke="#000" stroke-linecap="round" stroke-width="1.2485"/>
  <path d="m120.6 103.01c7.6563-22.843 21.038-7.7656 20.971 0.92873-1.5034 14.833-6.4364 12.359-8.2739 15.199-0.25986 1.441-1.5887 1.2539-4.5654 5.2818-2.0789 3.1419-8.7324 5.3015-10.977-0.0847" fill="none" stroke="#000" stroke-linecap="round" stroke-width="1.1"/>
  <path d="m137.31 101.74-0.25976 0.0547c1.0224 4.8931 0.61165 8.3969-1.2188 10.857-1.8304 2.4605-5.1047 3.9039-9.8691 4.623l0.041 0.26172c4.7984-0.72429 8.1502-2.1867 10.041-4.7285s2.2961-6.1365 1.2656-11.068z" color="#000000" color-rendering="auto" dominant-baseline="auto" image-rendering="auto" opacity="1" shape-rendering="auto" solid-color="#000000" stop-color="#000000" style="font-feature-settings:normal;font-variant-alternates:normal;font-variant-caps:normal;font-variant-east-asian:normal;font-variant-ligatures:normal;font-variant-numeric:normal;font-variant-position:normal;font-variation-settings:normal;inline-size:0;isolation:auto;mix-blend-mode:normal;shape-margin:0;shape-padding:0;text-decoration-color:#000000;text-decoration-line:none;text-decoration-style:solid;text-indent:0;text-orientation:mixed;text-transform:none;white-space:normal"/>
  <path d="m129.85 119.82c-1.2361 2.7461-3.5977 3.7544-6.1421 5.0082" fill="none" stroke="#000" stroke-width=".26458px"/>
  <path d="m127.63 123.22c-1.885 1.6292-3.7104 2.2231-6.0949 2.4568" fill="none" stroke="#000" stroke-width=".26458px"/>
  <g id="svg__face__hair">
   <path d="m55.275 122.95c1.7013-1.0207 2.1219-0.19116 1.4754 0.48932-1.1908 1.0548-0.35848 2.0728-0.35848 2.0728l1.4306-1.2931c-1.6331 1.5311-1.2239 2.0704-1.2239 2.0704 0.93522-0.12212-5.8188 3.8098 1.642 0.12834l0.70158-0.46772c3.7767 1.5991 7.0197 9.7091 7.0197 9.7091-5.6481-0.95267-6.56-0.31441-6.56-0.31441 2.0075 0.30622 9.3819 4.1593 9.9943 5.5203-4.0829-0.40829-4.1212-1.1832-4.1212-1.1832l2.9764 2.3663-6.9077-3.4001 7.1791 4.4912-6.226-2.9551 5.7903 4.3562-3.0348-1.2309 2.5122 2.2882-4.1888-2.2226 1.6702 2.2226-2.4944-2.317 1.1207 4.2101c-1.0888-1.2589-1.977-2.0353-1.977-2.0353-1.9394-1.2249-2.3732 3.6917-2.3732 3.6917 0.68051-6.5326-3.8923-11.122-3.8923-11.122-1.6331 0.37427-1.6027 4.0228-1.6027 4.0228l-2.153-4.2328c-1.7692 0.30622-3.113 3.0497-3.113 3.0497l-0.5638-5.8501c-1.5651 0.61243-2.8252 5.9366-2.689 6.5661-0.97402-2.7313-1.1849-9.8303-1.1849-9.8303-1.7012 1.0888-3.3642 5.1621-3.3642 5.1621l0.64303-5.71c-1.9054 1.2929-2.7185 3.3284-2.7185 3.3284 1.7692-11.194 4.403-11.47 5.5259-11.505 7.2471 3.9128 11.066-0.0767 11.066-0.0767z" style="mix-blend-mode:normal"/>
   <path d="m51.308 150.92 0.37126 2.2392c2.1734 0.28348 1.85-2.087 1.85-2.087l2.6944 13.753s-2.1691-9.5422-3.114-10.676c-0.27167 3.3191 1.0474 10.43 1.0474 10.43l-0.67012-3.4184c-0.94422 0.0757-0.082 3.005-0.23552 3.005l-0.7087-2.9293 0.23623 2.8821s-0.68694-4.7457-1.0413-0.63521c0 0 0.77489 2.1504-3.6351 2.2507 2.205 0.60135 5.5237-0.68012 5.5237-0.68012s-4.2444 1.4265-4.8792 2.8631c-3.3743 4.2429-0.52215 3.4686 2.4072 2.7126 1.8899 1.1339 3.9988-1.3176 4.8006-3.8566-0.0668 2.6059-2.1158 4.6244-2.1158 4.6244l4.5983 2.7701s4.5903 0.97994 7.5526-8.2026c-2.5391 7.3499-5.4745 9.7663-5.4745 9.7663l3.4777 0.53361 0.45565-4.3504c-0.20045 3.6081 0.30582 4.8312 0.30582 4.8312l3.1531 0.17639s0.42799-0.58176-0.0397-3.9226l0.75319 4.6767s2.1401 0.40428 2e-3 -7.3465c0 0 3.108 5.633 4.1102 6.1341 0.16704 1.637 9.2268 1.9756 9.2268 1.9756-6.7486 1.0691-12.336-0.96324-17.682 2.5113-0.66818-0.60136 0.92621 1.4527 0.92621 1.4527-0.73499-0.60136-3.1381-2.3111-3.2049-1.5761-1.47-0.80181-2.775-0.1665-11.394 3.0407l3.9682-1.8184c-8.6863-1.9377-10.822-5.6376-10.822-5.6376-3.6081-1.6704-4.4384-5.348-4.4384-5.348s-1.8505 1.6652 0.22084 8.4138c0 0-3.6732-2.5971-3.3391-4.0671-0.4009-5.8799 3.3545-12.946 3.3545-12.946 3.7418-3.8086 8.4129-4.4686 8.4129-4.4686 3.7418-0.13364 3.589 3.9188 3.589 3.9188l-1.8465-7.2365c-1.6036-2.0713-0.13835 1.9995-0.13835 1.9995l-2.989-5.6234c2.5513 1.4174 4.7301-0.13429 4.7301-0.1343z" style="mix-blend-mode:normal"/>
  </g>
  <path id="svg__face__eye" d="m66.091 93.663c-1.1468 0.14059-1.6474 0.42297-2.2607 1.2895-1.08e-4 -0.0247-0.0015-0.0513-0.0015-0.076 0-0.061-0.01581 3e-3 -0.03365 0.12714-0.45843 0.68038-0.70993 1.5418-0.71004 2.4319 6.4e-5 2.0834 1.3491 3.7723 3.0133 3.7724 0.06827 0 0.13654-3e-3 0.20464-9e-3 1.204 0.19035 2.766-0.75251 2.809-3.7641-6.7e-5 -2.0836-1.3494-3.7726-3.0138-3.7724h-0.0074z" stroke="#000" stroke-width=".90502px" style="mix-blend-mode:normal"/>
 </g>
 <g transform="translate(2 2)" style="mix-blend-mode:normal">
  <path d="m16.877 52.27c3.2234 3.4391 4.9273-0.43386 4.9273-0.43386-0.56302 1.2774-0.58813 1.7915-0.11377 2.4042 1.4667 0.65694 1.8373 0.20428 2.1658-0.50544 0.13853-1.0399-0.92757-2.3016-0.92757-2.3016s0.80179 0.89158 1.4614 0.27534c0.32985-0.2845-1.2815-2.7408-0.67939-1.5177 1.269 2.5778-3.987 0.62183-3.9054 2.4583 0.06196 1.3953-2.6693-0.18189-2.9283-0.37924" stroke="#000" stroke-width=".26458px"/>
  <path d="m15.736 57.72c4.2805 1.3566 1.5737 5.2279 1.5737 5.2279 1.7268-3.3796 3.3864-4.1462 3.3864-4.1462-2.6046 0.40894-4.9602-1.0817-4.9602-1.0817z" stroke="#000" stroke-width=".26458px"/>
  <g shape-rendering="auto">
   <path d="m99.639 58.082c-2.1972-0.32777-4.4674 0.91809-5.6348 3.9395-0.33961 0.87898-0.43236 1.6208-0.2832 2.2656 0.14916 0.64484 0.53937 1.1657 1.0684 1.5957 1.058 0.85997 2.6792 1.4386 4.5371 2.2812 1.4715 0.66735 2.1633 1.3307 2.3379 2.0098 0.17462 0.67902-0.12941 1.5228-0.9375 2.6289l0.53711 0.39258c0.85534-1.1708 1.2964-2.2096 1.0449-3.1875-0.25146-0.97786-1.1573-1.7464-2.707-2.4492-1.8831-0.854-3.4863-1.4567-4.3926-2.1934-0.45312-0.36831-0.72944-0.74927-0.83984-1.2266-0.11041-0.47729-0.05502-1.0774 0.25391-1.877 1.0878-2.8154 3.0204-3.8046 4.918-3.5215 1.8975 0.28307 3.8052 1.9058 4.6836 4.5781l0.63281-0.20703c-0.94272-2.8679-3.0216-4.7015-5.2187-5.0293z" color="#000000" color-rendering="auto" dominant-baseline="auto" image-rendering="auto" solid-color="#000000" stop-color="#000000" style="font-feature-settings:normal;font-variant-alternates:normal;font-variant-caps:normal;font-variant-east-asian:normal;font-variant-ligatures:normal;font-variant-numeric:normal;font-variant-position:normal;font-variation-settings:normal;inline-size:0;isolation:auto;mix-blend-mode:normal;shape-margin:0;shape-padding:0;text-decoration-color:#000000;text-decoration-line:none;text-decoration-style:solid;text-indent:0;text-orientation:mixed;text-transform:none;white-space:normal"/>
   <g>
    <path d="m96.618 66.835c-1.332 1.4073 0.19463 4.7272 0.19463 4.7272-4.4084-3.3653-1.5862-5.5321-1.5862-5.5321z" color="#000000" color-rendering="auto" dominant-baseline="auto" image-rendering="auto" solid-color="#000000" stop-color="#000000" style="font-feature-settings:normal;font-variant-alternates:normal;font-variant-caps:normal;font-variant-east-asian:normal;font-variant-ligatures:normal;font-variant-numeric:normal;font-variant-position:normal;font-variation-settings:normal;inline-size:0;isolation:auto;mix-blend-mode:normal;shape-margin:0;shape-padding:0;text-decoration-color:#000000;text-decoration-line:none;text-decoration-style:solid;text-indent:0;text-orientation:mixed;text-transform:none;white-space:normal"/>
    <path d="m95.217 65.871-0.07031 0.05469s-0.74689 0.57096-0.91016 1.5879c-0.16327 1.0169 0.27017 2.4551 2.4961 4.1543l0.20117-0.16211s-0.37631-0.81748-0.58789-1.8066-0.24382-2.1258 0.36914-2.7734l0.11523-0.12109-0.14453-0.08398zm0.04883 0.33398 1.1953 0.69141c-0.60179 0.76462-0.58192 1.8901-0.375 2.8574 0.15063 0.70421 0.289 0.96662 0.41797 1.2832-1.6779-1.4515-2.1379-2.6598-2.0059-3.4824 0.13849-0.86258 0.70748-1.3014 0.76758-1.3496z" color="#000000" color-rendering="auto" dominant-baseline="auto" image-rendering="auto" solid-color="#000000" stop-color="#000000" style="font-feature-settings:normal;font-variant-alternates:normal;font-variant-caps:normal;font-variant-east-asian:normal;font-variant-ligatures:normal;font-variant-numeric:normal;font-variant-position:normal;font-variation-settings:normal;inline-size:0;isolation:auto;mix-blend-mode:normal;shape-margin:0;shape-padding:0;text-decoration-color:#000000;text-decoration-line:none;text-decoration-style:solid;text-indent:0;text-orientation:mixed;text-transform:none;white-space:normal"/>
   </g>
   <path d="m94.006 62.016c-0.37412 0.91661-0.43214 1.9881 0.33398 3.0273 0.76612 1.0393 2.2809 2.055 5.002 3.127l0.24414-0.61719c-2.6643-1.0496-4.0741-2.0404-4.7109-2.9043-0.63682-0.86386-0.5761-1.5915-0.25391-2.3809z" color="#000000" color-rendering="auto" dominant-baseline="auto" image-rendering="auto" solid-color="#000000" stop-color="#000000" style="font-feature-settings:normal;font-variant-alternates:normal;font-variant-caps:normal;font-variant-east-asian:normal;font-variant-ligatures:normal;font-variant-numeric:normal;font-variant-position:normal;font-variation-settings:normal;inline-size:0;isolation:auto;mix-blend-mode:normal;shape-margin:0;shape-padding:0;text-decoration-color:#000000;text-decoration-line:none;text-decoration-style:solid;text-indent:0;text-orientation:mixed;text-transform:none;white-space:normal"/>
  </g>
  <path d="m91.422 78.033c-1.2618 0.19715-1.5916 0.36124-1.5916 0.36124-1.2012 0.50484-0.74151-2.1025-0.0059-1.9043l0.62866 0.07306c0.17014 1.0017 0.56795-1.8375 0.56795-1.8375l0.13363-2.2384s-0.26664-0.83264 0.56795-1.0357c2.1715-0.04011 3.9044 1.6129 3.9044 1.6129 0.36791 0.1325-0.32964 0.85938-0.32964 0.85938 0.53598 0.46607-1.5636 2.7212-1.2998 1.5845 0 0-0.50783-2.17-0.80428-0.79933 0 0-2.4698 3.2614-1.1365 2.255 0 0 1.9453 0.01428 1.0106 0.25103 0 0-0.46552 0.64405-1.6454 0.81805z"/>
  <path d="m12.928 83.531c-4.7291-1.4028 4.6479-16.358 4.6479-16.358l1.6187 0.97098s-9.1098 12.703-6.2666 15.387z" stroke="#000" stroke-width=".26458px"/>
 </g>
</svg>
